<svg width="500" height="500" xmlns="http://www.w3.org/2000/svg">

 <title/>
 <g>
  <title>Layer 1</title>
  <path stroke="null" id="svg_22" d="m111.28001,380.83l32.50001,0l0,0c17.94926,0 32.50001,13.08671 32.50001,29.22998c0,16.14328 -14.55075,29.22998 -32.50001,29.22998l-32.50001,0l0,-58.45997z" fill="#f8b62d"/>
  <path stroke="null" id="svg_25" d="m232.3119,419.64061l40.0162,0l0,0c5.24224,0 9.4919,3.13401 9.4919,7c0,3.86599 -4.24966,7 -9.4919,7l-40.0162,0l0,0c-5.24223,0 -9.4919,-3.13401 -9.4919,-7c0,-3.86599 4.24967,-7 9.4919,-7z" fill="#f8b62d"/>
  <g stroke="null" id="图层_1" data-name="图层 1">
   <path stroke="null" id="svg_1" fill="#f8b62d" d="m203.1982,354.36436l34.66981,0l7.90332,-7.84977a11.13451,11.54821 0 0 1 15.44277,0l7.90332,7.84977l34.66981,0c0,-5.66089 3.52229,-11.32178 10.55231,-11.32178l41.27774,0a118.62256,123.03 0 0 0 -79.07686,-184.03174c-48.43876,-10.17451 -99.30819,13.45027 -124.82296,57.15234a120.58748,125.06792 0 0 0 -0.75686,126.8945l41.69983,0c6.98636,-0.0151 10.53776,5.64579 10.53776,11.30668z" class="cls-1"/>
   <path stroke="null" id="svg_2" fill="#231815" d="m151.71747,216.16318c25.52932,-43.70207 76.3842,-67.32685 124.82296,-57.15234a120.34004,124.81129 0 0 1 95.97511,121.14304c0.10188,-14.58245 21.93426,-14.56736 21.83237,0a142.63817,147.93791 0 0 0 -93.15146,-137.47659c-54.97392,-20.86226 -119.27753,-2.4455 -156.20336,44.42666c-34.4806,43.77755 -41.83083,105.29255 -18.61574,155.93864l24.5687,0a120.58748,125.06792 0 0 1 0.77141,-126.8794z" class="cls-2"/>
   <path stroke="null" id="svg_3" fill="#231815" d="m372.51554,280.15388c0.10188,14.56736 21.93426,14.59755 21.83237,0s-21.73049,-14.62774 -21.83237,0z" class="cls-2"/>
   <path stroke="null" id="svg_4" fill="#231815" d="m372.51554,280.15388a121.50444,126.01895 0 0 1 -16.8837,62.88871l24.49592,0a142.09964,147.37937 0 0 0 14.23471,-62.88871c0.08733,14.59755 -21.74504,14.56736 -21.84693,0z" class="cls-2"/>
   <path stroke="null" id="svg_5" fill="#231815" d="m264.41618,91.68399l0,-50.81214c0,-14.56736 -21.83237,-14.59755 -21.83237,0l0,50.79705c0,14.58245 21.83237,14.59755 21.83237,0.0151zm-10.91619,-50.81214l0,0z" class="cls-2"/>
   <path stroke="null" id="svg_6" fill="#231815" d="m171.99246,111.21784l-24.49592,-44.00398c-7.03002,-12.62001 -25.8932,-1.22275 -18.92139,11.42745l24.49592,44.00398c7.16102,12.62001 26.03874,1.22275 18.92139,-11.42745zm-9.43159,5.72127l-24.49592,-44.00398l24.49592,44.00398z" class="cls-2"/>
   <path stroke="null" id="svg_7" fill="#231815" d="m48.18835,170.28733l42.42758,25.40607c12.19702,7.30632 23.20054,-12.25771 11.01807,-19.62442l-42.42758,-25.27021c-12.18246,-7.35161 -23.20054,12.19733 -11.01807,19.48856zm5.51631,-9.78202l42.42758,25.40607l-42.42758,-25.40607z" class="cls-2"/>
   <path stroke="null" id="svg_8" fill="#231815" d="m22.79002,291.47565l48.97729,0c14.04549,0 14.0746,-22.64356 0,-22.64356l-48.97729,0c-14.04549,0 -14.0746,22.64356 0,22.64356zm0,-11.32178l0,0z" class="cls-2"/>
   <path stroke="null" id="svg_9" fill="#231815" d="m484.20996,268.8321l-48.97729,0c-14.04549,0 -14.0746,22.64356 0,22.64356l48.97729,0c14.04549,0 14.0746,-22.64356 0,-22.64356zm-48.97729,11.32178l0,0z" class="cls-2"/>
   <path stroke="null" id="svg_10" fill="#231815" d="m416.38405,195.6934l42.42758,-25.40607c12.16791,-7.29123 1.17895,-26.85526 -11.01807,-19.62442l-42.42758,25.40607c-12.1388,7.35161 -1.17895,26.93074 11.01807,19.62442zm36.91127,-35.17299l-42.42758,25.40607l42.42758,-25.40607z" class="cls-2"/>
   <path stroke="null" id="svg_11" fill="#231815" d="m353.78336,122.64529l24.49592,-44.00398c7.04458,-12.63511 -11.81859,-24.06255 -18.92139,-11.42745l-24.35037,44.00398c-7.1028,12.63511 11.74582,24.06255 18.77584,11.42745zm15.06434,-49.71016l-24.49592,44.00398l24.49592,-44.00398z" class="cls-2"/>
   <path stroke="null" id="svg_12" fill="#231815" d="m482.47793,343.04258l-168.13839,0c-7.03002,0 -10.53776,5.66089 -10.55231,11.32178s3.50773,11.32178 10.55231,11.32178l168.13839,0c14.08916,0 14.08916,-22.64356 0,-22.64356z" class="cls-2"/>
   <path stroke="null" id="svg_13" fill="#231815" d="m139.36034,365.68614l53.3001,0c7.03002,0 10.53776,-5.66089 10.53776,-11.32178s-3.50773,-11.32178 -10.53776,-11.32178l-168.13839,0c-14.04549,0 -14.0746,22.64356 0,22.64356l114.82373,0l0.01455,0z" class="cls-2"/>
   <path stroke="null" id="svg_14" fill="#231815" d="m435.65476,430.76373l-116.93419,0l-12.67733,-12.57472l-36.92582,-36.65237l-7.90332,-7.84977a11.13451,11.54821 0 0 0 -15.44277,0l-7.90332,7.84977l-36.64928,36.36555l-12.95388,12.84645l-116.91964,0c-14.04549,0 -14.0746,22.64356 0,22.64356l89.86205,0c10.39221,0 21.07552,0.73969 31.45317,0c5.6182,-0.39249 9.59169,-4.9363 13.41963,-8.93666l1.45549,-1.419l0.84419,-0.89065l15.60287,-15.48819l2.57622,-2.55117l26.94115,-26.7043c9.67902,9.81221 19.28526,19.80557 29.10983,29.60268c5.09422,5.10235 10.18844,10.15941 15.47188,15.09571c1.00429,0.95103 2.02313,1.87187 3.02742,2.8078c1.80481,1.67562 3.59506,3.35125 5.42898,4.98158c7.27746,6.58173 23.11321,3.5324 32.02081,3.5324l97.25595,0c13.88539,-0.0151 13.9145,-22.65865 -0.1601,-22.65865z" class="cls-2"/>
   <polyline stroke="null" stroke-linecap="round" id="svg_18" points="99.21788787841797,408.9353332519531 99.21788787841797,408.9353332519531 99.21788787841797,408.9353332519531 99.21788787841797,408.9353332519531 99.21788787841797,410.44488525390625 99.21788787841797,410.44488525390625 99.21788787841797,410.44488525390625 99.21788787841797,410.44488525390625 99.21788787841797,411.9544677734375 99.21788787841797,413.46405029296875 99.21788787841797,414.9736022949219 99.21788787841797,414.9736022949219 99.21788787841797,416.4831848144531 99.21788787841797,416.4831848144531 99.21788787841797,416.4831848144531 99.21788787841797,417.9927673339844 99.21788787841797,417.9927673339844 99.21788787841797,421.01190185546875 99.21788787841797,422.521484375 99.21788787841797,424.03106689453125 99.21788787841797,424.03106689453125 99.21788787841797,425.5406188964844 99.21788787841797,425.5406188964844 99.21788787841797,427.0502014160156 99.21788787841797,430.0693359375 99.21788787841797,433.0884704589844 99.21788787841797,434.5980224609375 99.21788787841797,436.10760498046875 99.21788787841797,437.6171875 99.21788787841797,437.6171875 99.21788787841797,439.1267395019531 99.21788787841797,440.6363220214844 97.76239013671875,443.65545654296875 97.76239013671875,446.6745910644531 97.76239013671875,449.6937255859375 97.76239013671875,449.6937255859375 97.76239013671875,451.2033386230469 97.76239013671875,451.2033386230469 97.76239013671875,452.712890625 96.30690002441406,455.7320251464844 96.30690002441406,458.75115966796875 96.30690002441406,461.77032470703125 94.85140991210938,464.7894592285156 94.85140991210938,466.29901123046875 94.85140991210938,466.29901123046875 94.85140991210938,467.80859375 94.85140991210938,467.80859375 94.85140991210938,467.80859375 94.85140991210938,467.80859375 94.85140991210938,467.80859375 94.85140991210938,467.80859375 94.85140991210938,467.80859375 94.85140991210938,467.80859375 94.85140991210938,467.80859375 94.85140991210938,466.29901123046875 94.85140991210938,466.29901123046875 94.85140991210938,464.7894592285156 94.85140991210938,463.2798767089844 94.85140991210938,463.2798767089844 94.85140991210938,461.77032470703125 94.85140991210938,458.75115966796875 94.85140991210938,454.22247314453125 94.85140991210938,448.18414306640625 94.85140991210938,442.1458740234375 94.85140991210938,437.6171875 94.85140991210938,434.5980224609375 94.85140991210938,433.0884704589844 94.85140991210938,431.5788879394531 94.85140991210938,430.0693359375 94.85140991210938,428.55975341796875 94.85140991210938,425.5406188964844 94.85140991210938,424.03106689453125 93.39591979980469,421.01190185546875 93.39591979980469,419.5023498535156 93.39591979980469,417.9927673339844 93.39591979980469,417.9927673339844 93.39591979980469,417.9927673339844 93.39591979980469,417.9927673339844 93.39591979980469,417.9927673339844 93.39591979980469,417.9927673339844 " opacity="NaN" fill="none"/>
   <polyline stroke="null" stroke-linecap="round" id="svg_19" points="93.39591979980469,417.9927673339844 93.39591979980469,417.9927673339844 93.39591979980469,419.5023498535156 93.39591979980469,425.5406188964844 93.39591979980469,431.5788879394531 93.39591979980469,442.1458740234375 93.39591979980469,449.6937255859375 93.39591979980469,458.75115966796875 93.39591979980469,464.7894592285156 93.39591979980469,473.84686279296875 93.39591979980469,481.39471435546875 91.94042205810547,487.4330139160156 91.94042205810547,491.96173095703125 91.94042205810547,494.9808654785156 91.94042205810547,496.49041748046875 91.94042205810547,498 91.94042205810547,498 91.94042205810547,498 91.94042205810547,498 90.48493957519531,496.49041748046875 " opacity="NaN" fill="none"/>
   <path stroke="null" id="svg_20" d="m93.39592,399.87792" opacity="NaN" fill="#231815"/>
  </g>
  <path stroke="null" id="svg_21" d="m334.49,410.775l0,0c0,-18.50153 15.22232,-33.49999 34,-33.49999l0,0c9.01736,0 17.6654,3.52945 24.04163,9.81192c6.37624,6.28247 9.95838,14.80332 9.95838,23.68807l0,0c0,18.50153 -15.22232,33.49999 -34,33.49999l0,0c-18.77768,0 -34,-14.99846 -34,-33.49999zm17,0l0,0c0,9.25076 7.61117,16.75 17,16.75c9.38884,0 17,-7.49923 17,-16.75c0,-9.25076 -7.61116,-16.75 -17,-16.75l0,0c-9.38884,0 -17,7.49923 -17,16.75z" fill="#231815"/>
  <path stroke="null" id="svg_23" d="m125.21999,393.23499l19.5,0l0,0c10.76955,0 19.5,6.93958 19.5,15.49999c0,8.56041 -8.73044,15.49999 -19.5,15.49999l-19.5,0l0,-30.99998z" fill="#000000"/>
  <path stroke="null" id="svg_24" d="m347.40499,409.83502l0,0c0,-10.82479 9.40202,-19.60002 21,-19.60002l0,0c5.56954,0 10.91098,2.065 14.84924,5.74071c3.93826,3.67572 6.15075,8.66106 6.15075,13.85931l0,0c0,10.82479 -9.40202,19.60002 -21,19.60002l0,0c-11.59798,0 -21,-8.77523 -21,-19.60002zm21,-19.60002l0,39.20004m-21,-19.60002l42,0" fill="#f8b62d"/>
  <path id="svg_26" d="m296.75471,424.3606l1.01059,0l0,0c0.13239,0 0.23971,0.22386 0.23971,0.5c0,0.27614 -0.10732,0.5 -0.23971,0.5l-1.01059,0l0,0c-0.13239,0 -0.23971,-0.22386 -0.23971,-0.5c0,-0.27614 0.10732,-0.5 0.23971,-0.5z" stroke="null" fill="#f8b62d"/>
 </g>
</svg>