<svg width="1800" height="400.00000000000006" xmlns="http://www.w3.org/2000/svg">
 <g id="Layer_1">
  <title>Layer 1</title>
  <g>
   <title/>
   <g>
    <title>Layer 1</title>
    <path fill="#f8b62d" d="m124.78001,326.86249l32.50001,0l0,0c17.94926,0 32.50001,13.08671 32.50001,29.22998c0,16.14328 -14.55075,29.22998 -32.50001,29.22998l-32.50001,0l0,-58.45997l0,0.00001z" id="svg_24" stroke="null"/>
    <path fill="#f8b62d" d="m245.8119,365.6731l40.0162,0l0,0c5.24224,0 9.4919,3.13401 9.4919,7c0,3.86599 -4.24966,7 -9.4919,7l-40.0162,0l0,0c-5.24223,0 -9.4919,-3.13401 -9.4919,-7c0,-3.86599 4.24967,-7 9.4919,-7z" id="svg_23" stroke="null"/>
    <g data-name="图层 1" id="svg_5" stroke="null">
     <path class="cls-1" d="m216.6982,300.39685l34.66981,0l7.90332,-7.84977a11.13451,11.54821 0 0 1 15.44277,0l7.90332,7.84977l34.66981,0c0,-5.66089 3.52229,-11.32178 10.55231,-11.32178l41.27774,0a118.62256,123.03 0 0 0 -79.07686,-184.03174c-48.43876,-10.17451 -99.30819,13.45027 -124.82296,57.15234a120.58748,125.06792 0 0 0 -0.75686,126.8945l41.69983,0c6.98636,-0.0151 10.53776,5.64579 10.53776,11.30668l0.00001,0z" fill="#f8b62d" id="svg_22" stroke="null"/>
     <path class="cls-2" d="m165.21747,162.19567c25.52932,-43.70207 76.3842,-67.32685 124.82296,-57.15234a120.34004,124.81129 0 0 1 95.97511,121.14304c0.10188,-14.58245 21.93426,-14.56736 21.83237,0a142.63817,147.93791 0 0 0 -93.15146,-137.47659c-54.97392,-20.86226 -119.27753,-2.4455 -156.20336,44.42666c-34.4806,43.77755 -41.83083,105.29255 -18.61574,155.93864l24.5687,0a120.58748,125.06792 0 0 1 0.77141,-126.8794l0.00001,-0.00001z" fill="#231815" id="svg_21" stroke="null"/>
     <path class="cls-2" d="m386.01554,226.18637c0.10188,14.56736 21.93426,14.59755 21.83237,0s-21.73049,-14.62774 -21.83237,0z" fill="#231815" id="svg_20" stroke="null"/>
     <path class="cls-2" d="m386.01554,226.18637a121.50444,126.01895 0 0 1 -16.8837,62.88871l24.49592,0a142.09964,147.37937 0 0 0 14.23471,-62.88871c0.08733,14.59755 -21.74504,14.56736 -21.84693,0z" fill="#231815" id="svg_19" stroke="null"/>
     <path class="cls-2" d="m277.91618,37.71648l0,-50.81214c0,-14.56736 -21.83237,-14.59755 -21.83237,0l0,50.79705c0,14.58245 21.83237,14.59755 21.83237,0.0151l0,-0.00001zm-10.91619,-50.81214l0,0z" fill="#231815" id="svg_18" stroke="null"/>
     <path class="cls-2" d="m185.49246,57.25033l-24.49592,-44.00398c-7.03002,-12.62001 -25.8932,-1.22275 -18.92139,11.42745l24.49592,44.00398c7.16102,12.62001 26.03874,1.22275 18.92139,-11.42745zm-9.43159,5.72127l-24.49592,-44.00398l24.49592,44.00398z" fill="#231815" id="svg_17" stroke="null"/>
     <path class="cls-2" d="m61.68835,116.31982l42.42758,25.40607c12.19702,7.30632 23.20054,-12.25771 11.01807,-19.62442l-42.42758,-25.27021c-12.18246,-7.35161 -23.20054,12.19733 -11.01807,19.48856zm5.51631,-9.78202l42.42758,25.40607l-42.42758,-25.40607z" fill="#231815" id="svg_16" stroke="null"/>
     <path class="cls-2" d="m36.29002,237.50814l48.97729,0c14.04549,0 14.0746,-22.64356 0,-22.64356l-48.97729,0c-14.04549,0 -14.0746,22.64356 0,22.64356zm0,-11.32178l0,0z" fill="#231815" id="svg_15" stroke="null"/>
     <path class="cls-2" d="m497.70996,214.86459l-48.97729,0c-14.04549,0 -14.0746,22.64356 0,22.64356l48.97729,0c14.04549,0 14.0746,-22.64356 0,-22.64356zm-48.97729,11.32178l0,0z" fill="#231815" id="svg_14" stroke="null"/>
     <path class="cls-2" d="m429.88405,141.72589l42.42758,-25.40607c12.16791,-7.29123 1.17895,-26.85526 -11.01807,-19.62442l-42.42758,25.40607c-12.1388,7.35161 -1.17895,26.93074 11.01807,19.62442zm36.91127,-35.17299l-42.42758,25.40607l42.42758,-25.40607z" fill="#231815" id="svg_13" stroke="null"/>
     <path class="cls-2" d="m367.28336,68.67778l24.49592,-44.00398c7.04458,-12.63511 -11.81859,-24.06255 -18.92139,-11.42745l-24.35037,44.00398c-7.1028,12.63511 11.74582,24.06255 18.77584,11.42745zm15.06434,-49.71016l-24.49592,44.00398l24.49592,-44.00398z" fill="#231815" id="svg_12" stroke="null"/>
     <path class="cls-2" d="m495.97793,289.07507l-168.13839,0c-7.03002,0 -10.53776,5.66089 -10.55231,11.32178s3.50773,11.32178 10.55231,11.32178l168.13839,0c14.08916,0 14.08916,-22.64356 0,-22.64356z" fill="#231815" id="svg_11" stroke="null"/>
     <path class="cls-2" d="m152.86034,311.71863l53.3001,0c7.03002,0 10.53776,-5.66089 10.53776,-11.32178s-3.50773,-11.32178 -10.53776,-11.32178l-168.13839,0c-14.04549,0 -14.0746,22.64356 0,22.64356l114.82373,0l0.01455,0l0.00001,0z" fill="#231815" id="svg_10" stroke="null"/>
     <path class="cls-2" d="m449.15476,376.79622l-116.93419,0l-12.67733,-12.57472l-36.92582,-36.65237l-7.90332,-7.84977a11.13451,11.54821 0 0 0 -15.44277,0l-7.90332,7.84977l-36.64928,36.36555l-12.95388,12.84645l-116.91964,0c-14.04549,0 -14.0746,22.64356 0,22.64356l89.86205,0c10.39221,0 21.07552,0.73969 31.45317,0c5.6182,-0.39249 9.59169,-4.9363 13.41963,-8.93666l1.45549,-1.419l0.84419,-0.89065l15.60287,-15.48819l2.57622,-2.55117l26.94115,-26.7043c9.67902,9.81221 19.28526,19.80557 29.10983,29.60268c5.09422,5.10235 10.18844,10.15941 15.47188,15.09571c1.00429,0.95103 2.02313,1.87187 3.02742,2.8078c1.80481,1.67562 3.59506,3.35125 5.42898,4.98158c7.27746,6.58173 23.11321,3.5324 32.02081,3.5324l97.25595,0c13.88539,-0.0151 13.9145,-22.65865 -0.1601,-22.65865l0.00001,-0.00002z" fill="#231815" id="svg_9" stroke="null"/>
     <polyline fill="none" opacity="NaN" points="112.71789526939392,354.96783447265625 112.71789526939392,354.96783447265625 112.71789526939392,354.96783447265625 112.71789526939392,354.96783447265625 112.71789526939392,356.4773864746094 112.71789526939392,356.4773864746094 112.71789526939392,356.4773864746094 112.71789526939392,356.4773864746094 112.71789526939392,357.9869689941406 112.71789526939392,359.4965515136719 112.71789526939392,361.006103515625 112.71789526939392,361.006103515625 112.71789526939392,362.51568603515625 112.71789526939392,362.51568603515625 112.71789526939392,362.51568603515625 112.71789526939392,364.0252685546875 112.71789526939392,364.0252685546875 112.71789526939392,367.0444030761719 112.71789526939392,368.5539855957031 112.71789526939392,370.0635681152344 112.71789526939392,370.0635681152344 112.71789526939392,371.5731201171875 112.71789526939392,371.5731201171875 112.71789526939392,373.08270263671875 112.71789526939392,376.10186767578125 112.71789526939392,379.1209716796875 112.71789526939392,380.6304931640625 112.71789526939392,382.14013671875 112.71789526939392,383.649658203125 112.71789526939392,383.649658203125 112.71789526939392,385.15924072265625 112.71789526939392,386.6688232421875 111.26232886314392,389.68798828125 111.26232886314392,392.70709228515625 111.26232886314392,395.7261962890625 111.26232886314392,395.7261962890625 111.26232886314392,397.23583984375 111.26232886314392,397.23583984375 111.26232886314392,398.745361328125 109.80688452720642,401.7645263671875 109.80688452720642,404.78363037109375 109.80688452720642,407.8028564453125 108.35144019126892,410.82196044921875 108.35144019126892,412.33154296875 108.35144019126892,412.33154296875 108.35144019126892,413.841064453125 108.35144019126892,413.841064453125 108.35144019126892,413.841064453125 108.35144019126892,413.841064453125 108.35144019126892,413.841064453125 108.35144019126892,413.841064453125 108.35144019126892,413.841064453125 108.35144019126892,413.841064453125 108.35144019126892,413.841064453125 108.35144019126892,412.33154296875 108.35144019126892,412.33154296875 108.35144019126892,410.82196044921875 108.35144019126892,409.3123779296875 108.35144019126892,409.3123779296875 108.35144019126892,407.8028564453125 108.35144019126892,404.78363037109375 108.35144019126892,400.2550048828125 108.35144019126892,394.21661376953125 108.35144019126892,388.17840576171875 108.35144019126892,383.649658203125 108.35144019126892,380.6304931640625 108.35144019126892,379.1209716796875 108.35144019126892,377.61138916015625 108.35144019126892,376.10186767578125 108.35144019126892,374.59228515625 108.35144019126892,371.5731201171875 108.35144019126892,370.0635681152344 106.89587378501892,367.0444030761719 106.89587378501892,365.53485107421875 106.89587378501892,364.0252685546875 106.89587378501892,364.0252685546875 106.89587378501892,364.0252685546875 106.89587378501892,364.0252685546875 106.89587378501892,364.0252685546875 106.89587378501892,364.0252685546875 " id="svg_8" stroke-linecap="round" stroke="null"/>
     <polyline fill="none" opacity="NaN" points="106.89587378501892,364.0252685546875 106.89587378501892,364.0252685546875 106.89587378501892,365.53485107421875 106.89587378501892,371.5731201171875 106.89587378501892,377.61138916015625 106.89587378501892,388.17840576171875 106.89587378501892,395.7261962890625 106.89587378501892,404.78363037109375 106.89587378501892,410.82196044921875 106.89587378501892,419.87939453125 106.89587378501892,427.42718505859375 105.44042944908142,433.46551513671875 105.44042944908142,437.99420166015625 105.44042944908142,441.01336669921875 105.44042944908142,442.52288818359375 105.44042944908142,444.032470703125 105.44042944908142,444.032470703125 105.44042944908142,444.032470703125 105.44042944908142,444.032470703125 103.98498511314392,442.52288818359375 " id="svg_7" stroke-linecap="round" stroke="null"/>
     <path fill="#231815" opacity="NaN" d="m106.89592,345.91041" id="svg_6" stroke="null"/>
    </g>
    <path fill="#231815" d="m347.99,356.80749l0,0c0,-18.50153 15.22232,-33.49999 34,-33.49999l0,0c9.01736,0 17.6654,3.52945 24.04163,9.81192c6.37624,6.28247 9.95838,14.80332 9.95838,23.68807l0,0c0,18.50153 -15.22232,33.49999 -34,33.49999l0,0c-18.77768,0 -34,-14.99846 -34,-33.49999l-0.00001,0zm17,0l0,0c0,9.25076 7.61117,16.75 17,16.75c9.38884,0 17,-7.49923 17,-16.75c0,-9.25076 -7.61116,-16.75 -17,-16.75l0,0c-9.38884,0 -17,7.49923 -17,16.75z" id="svg_4" stroke="null"/>
    <path fill="#000000" d="m138.71999,339.26748l19.5,0l0,0c10.76955,0 19.5,6.93958 19.5,15.49999c0,8.56041 -8.73044,15.49999 -19.5,15.49999l-19.5,0l0,-30.99998z" id="svg_3" stroke="null"/>
    <path fill="#f8b62d" d="m361.90499,355.86751l0,0c0,-10.82479 9.40202,-19.60002 21,-19.60002l0,0c5.56954,0 10.91098,2.065 14.84924,5.74071c3.93826,3.67572 6.15075,8.66106 6.15075,13.85931l0,0c0,10.82479 -9.40202,19.60002 -21,19.60002l0,0c-11.59798,0 -21,-8.77523 -21,-19.60002l0.00001,0zm21,-19.60002l0,39.20004m-21,-19.60002l42,0" id="svg_2" stroke="null"/>
    <path fill="#f8b62d" stroke="null" d="m310.25471,370.39309l1.01059,0l0,0c0.13239,0 0.23971,0.22386 0.23971,0.5c0,0.27614 -0.10732,0.5 -0.23971,0.5l-1.01059,0l0,0c-0.13239,0 -0.23971,-0.22386 -0.23971,-0.5c0,-0.27614 0.10732,-0.5 0.23971,-0.5z" id="svg_1"/>
   </g>
  </g>
  <text stroke="null" xml:space="preserve" text-anchor="start" font-family="Noto Sans JP" font-size="180" stroke-width="0" id="svg_25" y="306" x="561" fill="#000000">EasyDAO cash</text>
  <path stroke="null" fill="#f8b62d" d="m1358.90501,292.93417l0,0c0,-6.44333 5.59644,-11.66668 12.5,-11.66668l0,0c3.3152,0 6.49463,1.22917 8.83883,3.41709c2.3442,2.18793 3.66116,5.15539 3.66116,8.24959l0,0c0,6.44333 -5.59644,11.66668 -12.5,11.66668l0,0c-6.90356,0 -12.5,-5.22335 -12.5,-11.66668l0.00001,0zm12.5,-11.66668l0,23.33336m-12.5,-11.66668l25,0" id="svg_26"/>
 </g>

</svg>